<mxfile host="app.diagrams.net" modified="2022-01-10T06:31:20.506Z" agent="5.0 (Windows NT 10.0; Win64; x64) AppleWebKit/537.36 (KHTML, like Gecko) Chrome/96.0.4664.110 Safari/537.36" etag="8Jqj46GkHsAoOQTNV9Tc" version="16.2.4" type="github">
  <diagram id="IVju5YWaCnDdPaoF4sn5" name="Order Type Process">
    <mxGraphModel dx="2062" dy="1160" grid="1" gridSize="10" guides="1" tooltips="1" connect="1" arrows="1" fold="1" page="1" pageScale="1" pageWidth="850" pageHeight="1100" math="0" shadow="0">
      <root>
        <mxCell id="0" />
        <mxCell id="1" parent="0" />
        <mxCell id="v1Vv0ovnMn7X07BH-cjP-1" value="" style="edgeStyle=orthogonalEdgeStyle;rounded=0;orthogonalLoop=1;jettySize=auto;html=1;" edge="1" parent="1" source="v1Vv0ovnMn7X07BH-cjP-2" target="v1Vv0ovnMn7X07BH-cjP-12">
          <mxGeometry relative="1" as="geometry" />
        </mxCell>
        <mxCell id="v1Vv0ovnMn7X07BH-cjP-2" value="Deploy Order" style="rounded=0;whiteSpace=wrap;html=1;" vertex="1" parent="1">
          <mxGeometry x="60" y="50" width="120" height="60" as="geometry" />
        </mxCell>
        <mxCell id="v1Vv0ovnMn7X07BH-cjP-3" value="" style="edgeStyle=orthogonalEdgeStyle;rounded=0;orthogonalLoop=1;jettySize=auto;html=1;" edge="1" parent="1" source="v1Vv0ovnMn7X07BH-cjP-4" target="v1Vv0ovnMn7X07BH-cjP-6">
          <mxGeometry relative="1" as="geometry" />
        </mxCell>
        <mxCell id="v1Vv0ovnMn7X07BH-cjP-4" value="Add Generic Product Requirements" style="rounded=0;whiteSpace=wrap;html=1;" vertex="1" parent="1">
          <mxGeometry x="60" y="266" width="120" height="60" as="geometry" />
        </mxCell>
        <mxCell id="v1Vv0ovnMn7X07BH-cjP-5" value="" style="edgeStyle=orthogonalEdgeStyle;rounded=0;orthogonalLoop=1;jettySize=auto;html=1;" edge="1" parent="1" source="v1Vv0ovnMn7X07BH-cjP-6" target="v1Vv0ovnMn7X07BH-cjP-8">
          <mxGeometry relative="1" as="geometry" />
        </mxCell>
        <mxCell id="v1Vv0ovnMn7X07BH-cjP-6" value="Set Status To New" style="rounded=0;whiteSpace=wrap;html=1;" vertex="1" parent="1">
          <mxGeometry x="60" y="374" width="120" height="60" as="geometry" />
        </mxCell>
        <mxCell id="v1Vv0ovnMn7X07BH-cjP-7" value="" style="edgeStyle=orthogonalEdgeStyle;rounded=0;orthogonalLoop=1;jettySize=auto;html=1;" edge="1" parent="1" source="v1Vv0ovnMn7X07BH-cjP-8" target="v1Vv0ovnMn7X07BH-cjP-10">
          <mxGeometry relative="1" as="geometry" />
        </mxCell>
        <mxCell id="v1Vv0ovnMn7X07BH-cjP-8" value="Assign to Employee" style="rounded=0;whiteSpace=wrap;html=1;" vertex="1" parent="1">
          <mxGeometry x="60" y="482" width="120" height="60" as="geometry" />
        </mxCell>
        <mxCell id="v1Vv0ovnMn7X07BH-cjP-9" value="" style="edgeStyle=orthogonalEdgeStyle;rounded=0;orthogonalLoop=1;jettySize=auto;html=1;" edge="1" parent="1" source="v1Vv0ovnMn7X07BH-cjP-10" target="v1Vv0ovnMn7X07BH-cjP-14">
          <mxGeometry relative="1" as="geometry" />
        </mxCell>
        <mxCell id="v1Vv0ovnMn7X07BH-cjP-10" value="Set Status to Assigned" style="rounded=0;whiteSpace=wrap;html=1;" vertex="1" parent="1">
          <mxGeometry x="60" y="590" width="120" height="60" as="geometry" />
        </mxCell>
        <mxCell id="v1Vv0ovnMn7X07BH-cjP-11" value="" style="edgeStyle=orthogonalEdgeStyle;rounded=0;orthogonalLoop=1;jettySize=auto;html=1;" edge="1" parent="1" source="v1Vv0ovnMn7X07BH-cjP-12" target="v1Vv0ovnMn7X07BH-cjP-4">
          <mxGeometry relative="1" as="geometry" />
        </mxCell>
        <mxCell id="v1Vv0ovnMn7X07BH-cjP-12" value="Set Type to Deploy Order" style="rounded=0;whiteSpace=wrap;html=1;" vertex="1" parent="1">
          <mxGeometry x="60" y="158" width="120" height="60" as="geometry" />
        </mxCell>
        <mxCell id="v1Vv0ovnMn7X07BH-cjP-13" value="" style="edgeStyle=orthogonalEdgeStyle;rounded=0;orthogonalLoop=1;jettySize=auto;html=1;" edge="1" parent="1" source="v1Vv0ovnMn7X07BH-cjP-14" target="v1Vv0ovnMn7X07BH-cjP-16">
          <mxGeometry relative="1" as="geometry" />
        </mxCell>
        <mxCell id="v1Vv0ovnMn7X07BH-cjP-14" value="Begin Deployment" style="rounded=0;whiteSpace=wrap;html=1;" vertex="1" parent="1">
          <mxGeometry x="60" y="698" width="120" height="60" as="geometry" />
        </mxCell>
        <mxCell id="v1Vv0ovnMn7X07BH-cjP-15" value="" style="edgeStyle=orthogonalEdgeStyle;rounded=0;orthogonalLoop=1;jettySize=auto;html=1;" edge="1" parent="1" source="v1Vv0ovnMn7X07BH-cjP-16" target="v1Vv0ovnMn7X07BH-cjP-18">
          <mxGeometry relative="1" as="geometry" />
        </mxCell>
        <mxCell id="v1Vv0ovnMn7X07BH-cjP-16" value="Set Status to In Progress" style="rounded=0;whiteSpace=wrap;html=1;" vertex="1" parent="1">
          <mxGeometry x="60" y="806" width="120" height="60" as="geometry" />
        </mxCell>
        <mxCell id="v1Vv0ovnMn7X07BH-cjP-17" value="" style="edgeStyle=orthogonalEdgeStyle;rounded=0;orthogonalLoop=1;jettySize=auto;html=1;" edge="1" parent="1" source="v1Vv0ovnMn7X07BH-cjP-18" target="v1Vv0ovnMn7X07BH-cjP-20">
          <mxGeometry relative="1" as="geometry" />
        </mxCell>
        <mxCell id="v1Vv0ovnMn7X07BH-cjP-18" value="Complete deploying Equipment" style="rounded=0;whiteSpace=wrap;html=1;" vertex="1" parent="1">
          <mxGeometry x="60" y="914" width="120" height="60" as="geometry" />
        </mxCell>
        <mxCell id="v1Vv0ovnMn7X07BH-cjP-19" value="" style="edgeStyle=orthogonalEdgeStyle;rounded=0;orthogonalLoop=1;jettySize=auto;html=1;" edge="1" parent="1" source="v1Vv0ovnMn7X07BH-cjP-20" target="v1Vv0ovnMn7X07BH-cjP-21">
          <mxGeometry relative="1" as="geometry" />
        </mxCell>
        <mxCell id="v1Vv0ovnMn7X07BH-cjP-20" value="Completion Checks" style="rounded=0;whiteSpace=wrap;html=1;" vertex="1" parent="1">
          <mxGeometry x="60" y="1022" width="120" height="60" as="geometry" />
        </mxCell>
        <mxCell id="v1Vv0ovnMn7X07BH-cjP-21" value="Complete Order" style="rounded=0;whiteSpace=wrap;html=1;" vertex="1" parent="1">
          <mxGeometry x="60" y="1130" width="120" height="60" as="geometry" />
        </mxCell>
        <mxCell id="v1Vv0ovnMn7X07BH-cjP-22" value="" style="edgeStyle=orthogonalEdgeStyle;rounded=0;orthogonalLoop=1;jettySize=auto;html=1;" edge="1" parent="1" source="v1Vv0ovnMn7X07BH-cjP-23" target="v1Vv0ovnMn7X07BH-cjP-25">
          <mxGeometry relative="1" as="geometry" />
        </mxCell>
        <mxCell id="v1Vv0ovnMn7X07BH-cjP-23" value="Inspect Order" style="rounded=0;whiteSpace=wrap;html=1;" vertex="1" parent="1">
          <mxGeometry x="260" y="50" width="120" height="60" as="geometry" />
        </mxCell>
        <mxCell id="v1Vv0ovnMn7X07BH-cjP-24" value="" style="edgeStyle=orthogonalEdgeStyle;rounded=0;orthogonalLoop=1;jettySize=auto;html=1;" edge="1" parent="1" source="v1Vv0ovnMn7X07BH-cjP-25" target="v1Vv0ovnMn7X07BH-cjP-27">
          <mxGeometry relative="1" as="geometry" />
        </mxCell>
        <mxCell id="v1Vv0ovnMn7X07BH-cjP-25" value="Set Type to Inspect Order" style="rounded=0;whiteSpace=wrap;html=1;" vertex="1" parent="1">
          <mxGeometry x="260" y="158" width="120" height="60" as="geometry" />
        </mxCell>
        <mxCell id="v1Vv0ovnMn7X07BH-cjP-26" value="" style="edgeStyle=orthogonalEdgeStyle;rounded=0;orthogonalLoop=1;jettySize=auto;html=1;" edge="1" parent="1" source="v1Vv0ovnMn7X07BH-cjP-27" target="v1Vv0ovnMn7X07BH-cjP-29">
          <mxGeometry relative="1" as="geometry" />
        </mxCell>
        <mxCell id="v1Vv0ovnMn7X07BH-cjP-27" value="Select Deploy Order" style="rounded=0;whiteSpace=wrap;html=1;" vertex="1" parent="1">
          <mxGeometry x="260" y="266" width="120" height="60" as="geometry" />
        </mxCell>
        <mxCell id="v1Vv0ovnMn7X07BH-cjP-28" value="" style="edgeStyle=orthogonalEdgeStyle;rounded=0;orthogonalLoop=1;jettySize=auto;html=1;" edge="1" parent="1" source="v1Vv0ovnMn7X07BH-cjP-29" target="v1Vv0ovnMn7X07BH-cjP-31">
          <mxGeometry relative="1" as="geometry" />
        </mxCell>
        <mxCell id="v1Vv0ovnMn7X07BH-cjP-29" value="Set Status to New" style="rounded=0;whiteSpace=wrap;html=1;" vertex="1" parent="1">
          <mxGeometry x="260" y="374" width="120" height="60" as="geometry" />
        </mxCell>
        <mxCell id="v1Vv0ovnMn7X07BH-cjP-30" value="" style="edgeStyle=orthogonalEdgeStyle;rounded=0;orthogonalLoop=1;jettySize=auto;html=1;" edge="1" parent="1" source="v1Vv0ovnMn7X07BH-cjP-31" target="v1Vv0ovnMn7X07BH-cjP-33">
          <mxGeometry relative="1" as="geometry" />
        </mxCell>
        <mxCell id="v1Vv0ovnMn7X07BH-cjP-31" value="Assign to Employee" style="rounded=0;whiteSpace=wrap;html=1;" vertex="1" parent="1">
          <mxGeometry x="260" y="482" width="120" height="60" as="geometry" />
        </mxCell>
        <mxCell id="v1Vv0ovnMn7X07BH-cjP-32" value="" style="edgeStyle=orthogonalEdgeStyle;rounded=0;orthogonalLoop=1;jettySize=auto;html=1;" edge="1" parent="1" source="v1Vv0ovnMn7X07BH-cjP-33" target="v1Vv0ovnMn7X07BH-cjP-35">
          <mxGeometry relative="1" as="geometry" />
        </mxCell>
        <mxCell id="v1Vv0ovnMn7X07BH-cjP-33" value="Set Status to Assigned" style="rounded=0;whiteSpace=wrap;html=1;" vertex="1" parent="1">
          <mxGeometry x="260" y="590" width="120" height="60" as="geometry" />
        </mxCell>
        <mxCell id="v1Vv0ovnMn7X07BH-cjP-34" value="" style="edgeStyle=orthogonalEdgeStyle;rounded=0;orthogonalLoop=1;jettySize=auto;html=1;" edge="1" parent="1" source="v1Vv0ovnMn7X07BH-cjP-35" target="v1Vv0ovnMn7X07BH-cjP-54">
          <mxGeometry relative="1" as="geometry" />
        </mxCell>
        <mxCell id="v1Vv0ovnMn7X07BH-cjP-35" value="Begin Inspection" style="rounded=0;whiteSpace=wrap;html=1;" vertex="1" parent="1">
          <mxGeometry x="260" y="698" width="120" height="60" as="geometry" />
        </mxCell>
        <mxCell id="v1Vv0ovnMn7X07BH-cjP-36" value="Complete Order" style="rounded=0;whiteSpace=wrap;html=1;" vertex="1" parent="1">
          <mxGeometry x="260" y="1130" width="120" height="60" as="geometry" />
        </mxCell>
        <mxCell id="v1Vv0ovnMn7X07BH-cjP-37" value="" style="edgeStyle=orthogonalEdgeStyle;rounded=0;orthogonalLoop=1;jettySize=auto;html=1;" edge="1" parent="1" source="v1Vv0ovnMn7X07BH-cjP-38" target="v1Vv0ovnMn7X07BH-cjP-40">
          <mxGeometry relative="1" as="geometry" />
        </mxCell>
        <mxCell id="v1Vv0ovnMn7X07BH-cjP-38" value="Pick Up Order" style="rounded=0;whiteSpace=wrap;html=1;" vertex="1" parent="1">
          <mxGeometry x="460" y="50" width="120" height="60" as="geometry" />
        </mxCell>
        <mxCell id="v1Vv0ovnMn7X07BH-cjP-39" value="" style="edgeStyle=orthogonalEdgeStyle;rounded=0;orthogonalLoop=1;jettySize=auto;html=1;" edge="1" parent="1" source="v1Vv0ovnMn7X07BH-cjP-40" target="v1Vv0ovnMn7X07BH-cjP-42">
          <mxGeometry relative="1" as="geometry" />
        </mxCell>
        <mxCell id="v1Vv0ovnMn7X07BH-cjP-40" value="Set Type to Pick Up Order" style="rounded=0;whiteSpace=wrap;html=1;" vertex="1" parent="1">
          <mxGeometry x="460" y="158" width="120" height="60" as="geometry" />
        </mxCell>
        <mxCell id="v1Vv0ovnMn7X07BH-cjP-41" value="" style="edgeStyle=orthogonalEdgeStyle;rounded=0;orthogonalLoop=1;jettySize=auto;html=1;" edge="1" parent="1" source="v1Vv0ovnMn7X07BH-cjP-42" target="v1Vv0ovnMn7X07BH-cjP-44">
          <mxGeometry relative="1" as="geometry" />
        </mxCell>
        <mxCell id="v1Vv0ovnMn7X07BH-cjP-42" value="Select Deploy Order" style="rounded=0;whiteSpace=wrap;html=1;" vertex="1" parent="1">
          <mxGeometry x="460" y="266" width="120" height="60" as="geometry" />
        </mxCell>
        <mxCell id="v1Vv0ovnMn7X07BH-cjP-43" value="" style="edgeStyle=orthogonalEdgeStyle;rounded=0;orthogonalLoop=1;jettySize=auto;html=1;" edge="1" parent="1" source="v1Vv0ovnMn7X07BH-cjP-44" target="v1Vv0ovnMn7X07BH-cjP-46">
          <mxGeometry relative="1" as="geometry" />
        </mxCell>
        <mxCell id="v1Vv0ovnMn7X07BH-cjP-44" value="Set Status to New" style="rounded=0;whiteSpace=wrap;html=1;" vertex="1" parent="1">
          <mxGeometry x="460" y="374" width="120" height="60" as="geometry" />
        </mxCell>
        <mxCell id="v1Vv0ovnMn7X07BH-cjP-45" value="" style="edgeStyle=orthogonalEdgeStyle;rounded=0;orthogonalLoop=1;jettySize=auto;html=1;" edge="1" parent="1" source="v1Vv0ovnMn7X07BH-cjP-46" target="v1Vv0ovnMn7X07BH-cjP-48">
          <mxGeometry relative="1" as="geometry" />
        </mxCell>
        <mxCell id="v1Vv0ovnMn7X07BH-cjP-46" value="Assign to Employee" style="rounded=0;whiteSpace=wrap;html=1;" vertex="1" parent="1">
          <mxGeometry x="460" y="482" width="120" height="60" as="geometry" />
        </mxCell>
        <mxCell id="v1Vv0ovnMn7X07BH-cjP-47" value="" style="edgeStyle=orthogonalEdgeStyle;rounded=0;orthogonalLoop=1;jettySize=auto;html=1;" edge="1" parent="1" source="v1Vv0ovnMn7X07BH-cjP-48" target="v1Vv0ovnMn7X07BH-cjP-50">
          <mxGeometry relative="1" as="geometry" />
        </mxCell>
        <mxCell id="v1Vv0ovnMn7X07BH-cjP-48" value="Set Status to Assigned" style="rounded=0;whiteSpace=wrap;html=1;" vertex="1" parent="1">
          <mxGeometry x="460" y="590" width="120" height="60" as="geometry" />
        </mxCell>
        <mxCell id="v1Vv0ovnMn7X07BH-cjP-49" value="" style="edgeStyle=orthogonalEdgeStyle;rounded=0;orthogonalLoop=1;jettySize=auto;html=1;" edge="1" parent="1" source="v1Vv0ovnMn7X07BH-cjP-50" target="v1Vv0ovnMn7X07BH-cjP-52">
          <mxGeometry relative="1" as="geometry" />
        </mxCell>
        <mxCell id="v1Vv0ovnMn7X07BH-cjP-50" value="Begin Pick Up" style="rounded=0;whiteSpace=wrap;html=1;" vertex="1" parent="1">
          <mxGeometry x="460" y="698" width="120" height="60" as="geometry" />
        </mxCell>
        <mxCell id="v1Vv0ovnMn7X07BH-cjP-51" value="" style="edgeStyle=orthogonalEdgeStyle;rounded=0;orthogonalLoop=1;jettySize=auto;html=1;" edge="1" parent="1" source="v1Vv0ovnMn7X07BH-cjP-52" target="v1Vv0ovnMn7X07BH-cjP-58">
          <mxGeometry relative="1" as="geometry" />
        </mxCell>
        <mxCell id="v1Vv0ovnMn7X07BH-cjP-52" value="Set Status to In Progress" style="rounded=0;whiteSpace=wrap;html=1;" vertex="1" parent="1">
          <mxGeometry x="460" y="800" width="120" height="60" as="geometry" />
        </mxCell>
        <mxCell id="v1Vv0ovnMn7X07BH-cjP-53" value="" style="edgeStyle=orthogonalEdgeStyle;rounded=0;orthogonalLoop=1;jettySize=auto;html=1;" edge="1" parent="1" source="v1Vv0ovnMn7X07BH-cjP-54" target="v1Vv0ovnMn7X07BH-cjP-56">
          <mxGeometry relative="1" as="geometry" />
        </mxCell>
        <mxCell id="v1Vv0ovnMn7X07BH-cjP-54" value="Set Status to In Progress" style="rounded=0;whiteSpace=wrap;html=1;" vertex="1" parent="1">
          <mxGeometry x="260" y="800" width="120" height="60" as="geometry" />
        </mxCell>
        <mxCell id="v1Vv0ovnMn7X07BH-cjP-55" value="" style="edgeStyle=orthogonalEdgeStyle;rounded=0;orthogonalLoop=1;jettySize=auto;html=1;" edge="1" parent="1" source="v1Vv0ovnMn7X07BH-cjP-56" target="v1Vv0ovnMn7X07BH-cjP-36">
          <mxGeometry relative="1" as="geometry" />
        </mxCell>
        <mxCell id="v1Vv0ovnMn7X07BH-cjP-56" value="Completion Checks" style="rounded=0;whiteSpace=wrap;html=1;" vertex="1" parent="1">
          <mxGeometry x="260" y="1022" width="120" height="60" as="geometry" />
        </mxCell>
        <mxCell id="v1Vv0ovnMn7X07BH-cjP-57" value="" style="edgeStyle=orthogonalEdgeStyle;rounded=0;orthogonalLoop=1;jettySize=auto;html=1;" edge="1" parent="1" source="v1Vv0ovnMn7X07BH-cjP-58" target="v1Vv0ovnMn7X07BH-cjP-61">
          <mxGeometry relative="1" as="geometry" />
        </mxCell>
        <mxCell id="v1Vv0ovnMn7X07BH-cjP-58" value="Complete Picking up Equipment" style="rounded=0;whiteSpace=wrap;html=1;" vertex="1" parent="1">
          <mxGeometry x="460" y="914" width="120" height="60" as="geometry" />
        </mxCell>
        <mxCell id="v1Vv0ovnMn7X07BH-cjP-59" value="Complete Order" style="rounded=0;whiteSpace=wrap;html=1;" vertex="1" parent="1">
          <mxGeometry x="460" y="1130" width="120" height="60" as="geometry" />
        </mxCell>
        <mxCell id="v1Vv0ovnMn7X07BH-cjP-60" value="" style="edgeStyle=orthogonalEdgeStyle;rounded=0;orthogonalLoop=1;jettySize=auto;html=1;" edge="1" parent="1" source="v1Vv0ovnMn7X07BH-cjP-61" target="v1Vv0ovnMn7X07BH-cjP-59">
          <mxGeometry relative="1" as="geometry" />
        </mxCell>
        <mxCell id="v1Vv0ovnMn7X07BH-cjP-61" value="Completion Checks" style="rounded=0;whiteSpace=wrap;html=1;" vertex="1" parent="1">
          <mxGeometry x="460" y="1022" width="120" height="60" as="geometry" />
        </mxCell>
      </root>
    </mxGraphModel>
  </diagram>
</mxfile>
